<svg width="25" height="24" viewBox="0 0 25 24" fill="none" xmlns="http://www.w3.org/2000/svg">
<rect width="24" height="24" transform="translate(0.5)" fill="white"/>
<path d="M7 6.216L7 3.906C7.00013 3.53306 7.14838 3.17544 7.41213 2.91178C7.67589 2.64812 8.03356 2.5 8.4065 2.5L20.5935 2.5C20.9665 2.5 21.3243 2.64818 21.588 2.91195C21.8518 3.17572 22 3.53347 22 3.9065V16.094C21.9999 16.4669 21.8516 16.8246 21.5879 17.0882C21.3241 17.3519 20.9664 17.5 20.5935 17.5H18.2585" stroke="#616161" stroke-width="2" stroke-linecap="round" stroke-linejoin="round"/>
<path d="M16.594 6.5L4.4055 6.5C4.03265 6.50027 3.67515 6.64857 3.4116 6.91231C3.14805 7.17605 3 7.53365 3 7.9065L3 20.0935C3 20.4665 3.14818 20.8243 3.41195 21.088C3.67572 21.3518 4.03347 21.5 4.4065 21.5H16.594C16.9669 21.4999 17.3246 21.3516 17.5882 21.0879C17.8519 20.8241 18 20.4664 18 20.0935V7.907C18.0001 7.72225 17.9637 7.5393 17.8931 7.3686C17.8224 7.1979 17.7188 7.04279 17.5882 6.91213C17.4576 6.78147 17.3025 6.67783 17.1319 6.60711C16.9612 6.5364 16.7782 6.5 16.5935 6.5H16.594Z" stroke="#616161" stroke-width="2" stroke-linejoin="round"/>
</svg>
